<svg xmlns="http://www.w3.org/2000/svg" width="500" height="500" viewBox="0 0 500 500">
  <defs>
    <style>
      .cls-1 {
        fill-rule: evenodd;
      }
    </style>
  </defs>
  <path id="o" class="cls-1" d="M321.325,306.225q32.4-36.672,32.4-89.325,0-112.492-99.9-112.5-48.6,0-79.65,38.25t-31.05,90.225q0,51.975,23.4,81t72.9,29.025Q288.922,342.9,321.325,306.225ZM252.475,142.65q45.447,0,45.45,95.85,0,33.75-9.675,49.95t-40.05,16.2q-30.375,0-40.725-29.25a142.366,142.366,0,0,1-6.75-28.8q-1.8-14.4-1.8-40.5a175.323,175.323,0,0,1,8.1-52.2q19.344-11.243,45.45-11.25h0Z"/>
</svg>
