<svg xmlns="http://www.w3.org/2000/svg" width="500" height="500" viewBox="0 0 500 500">
  <defs>
    <style>
      .cls-1 {
        fill-rule: evenodd;
      }
    </style>
  </defs>
  <path id="m" class="cls-1" d="M372.853,107.1q-26.1,0-52.425,23.85a200.664,200.664,0,0,0-42.975,55.35q1.35-14.85,1.35-27,0-48.6-45.45-48.6-25.65,0-51.3,21.825a187.376,187.376,0,0,0-42.3,51.525q3.143-31.493,3.15-39.6,0-15.747-10.125-25.2t-26.325-9.45a86.417,86.417,0,0,0-30.6,5.4Q86.2,159.307,86.2,193.275a584.909,584.909,0,0,1-4.05,68.4q-4.05,34.425-4.05,47.7t9.675,20.7q9.672,7.425,25.2,7.425a84.557,84.557,0,0,0,29.925-5.4q-6.75-31.05-9-69.75,0.9-14.85,13.275-39.825a214.137,214.137,0,0,1,30.375-45.675q17.993-20.692,31.95-20.7,20.25,0,20.25,22.5,0,10.8-4.95,53.1t-4.95,60.3q0,42.757,38.25,42.75,11.7,0,28.8-5.4a320.323,320.323,0,0,1-12.6-70.65q0-23.392,28.125-64.8t48.375-41.4q18.447,0,18.45,22.5,0,11.707-4.95,57.375t-4.95,65.025q0,42.757,38.25,42.75,16.2,0,28.8-5.4A268.559,268.559,0,0,1,413.8,252l4.5-96.3q0-48.6-45.45-48.6h0Z"/>
</svg>
