<svg xmlns="http://www.w3.org/2000/svg" width="500" height="500" viewBox="0 0 500 500">
  <defs>
    <style>
      .cls-1 {
        fill-rule: evenodd;
      }
    </style>
  </defs>
  <path id="T" class="cls-1" d="M146.4,112.45q-10.356,10.8-10.35,23.625a49.332,49.332,0,0,0,5.4,23.175q30.6-12.593,85.05-15.3a725.569,725.569,0,0,1,4.5,83.475q0,44.782-4.5,92.025T222,385.375q0,18.678,11.7,27.9t27.9,9.225a90.15,90.15,0,0,0,31.05-5.4,800.886,800.886,0,0,1-9.45-122.4,1180.416,1180.416,0,0,1,6.3-121.95q2.247-24.743,2.25-27.9l51.75,5.85q15.294,0,26.1-9.675T380.4,119.2a45.884,45.884,0,0,0-4.95-21.6q-34.2,5.4-108,5.4l-94.95-1.35Q156.747,101.65,146.4,112.45Z"/>
</svg>
