<svg xmlns="http://www.w3.org/2000/svg" width="500" height="500" viewBox="0 0 500 500">
  <defs>
    <style>
      .cls-1 {
        fill-rule: evenodd;
      }
    </style>
  </defs>
  <path id="y" class="cls-1" d="M208.6,333.9q27,0,50.175-22.275T295.453,252.9q0,43.2-15.75,96.3-8.1,26.093-21.6,44.1t-30.15,18q-27.453,0-27.45-39.6a46.646,46.646,0,0,1,1.35-10.35,56.01,56.01,0,0,0-9-.9,41.4,41.4,0,0,0-28.8,11.025A35.3,35.3,0,0,0,151.9,398.7q0,24.3,19.125,37.8T215.8,450q25.65,0,45.9-10.8,90-49.053,90-294.75,0-15.747-10.125-25.2t-25.2-9.45a83.286,83.286,0,0,0-29.475,5.4q5.4,18,7.65,53.55,0,17.108-10.575,46.35a217.152,217.152,0,0,1-27.9,53.325Q238.75,292.5,223.678,292.5T205.9,277.2a89.867,89.867,0,0,1-2.25-13.275q-0.453-5.622-.45-18t4.95-45.225q4.947-32.842,4.95-50.85,0-40.047-36-40.05-18.456,0-31.05,5.4a268.772,268.772,0,0,1,12.6,82.8l-4.5,64.8q0,71.107,54.45,71.1h0Z"/>
</svg>
