<svg xmlns="http://www.w3.org/2000/svg" width="500" height="500" viewBox="0 0 500 500">
  <defs>
    <style>
      .cls-1 {
        fill-rule: evenodd;
      }
    </style>
  </defs>
  <path id="Tommy" class="cls-1" d="M4.554,179.15a11.175,11.175,0,0,0-3.45,7.875,16.443,16.443,0,0,0,1.8,7.725q10.2-4.2,28.35-5.1a241.9,241.9,0,0,1,1.5,27.825q0,14.928-1.5,30.675t-1.5,21.975q0,6.226,3.9,9.3a14.559,14.559,0,0,0,9.3,3.075,30.05,30.05,0,0,0,10.35-1.8,266.956,266.956,0,0,1-3.15-40.8,393.43,393.43,0,0,1,2.1-40.65Q53,191,53,189.95l17.25,1.95a12.575,12.575,0,0,0,8.7-3.225,9.594,9.594,0,0,0,3.6-7.275,15.3,15.3,0,0,0-1.65-7.2q-11.4,1.8-36,1.8l-31.65-.45A11.537,11.537,0,0,0,4.554,179.15ZM132.8,272.075q10.8-12.224,10.8-29.775,0-37.5-33.3-37.5-16.2,0-26.55,12.75T73.4,247.625q0,17.325,7.8,27t24.3,9.675A34.851,34.851,0,0,0,132.8,272.075Zm-22.95-54.525Q125,217.55,125,249.5q0,11.25-3.225,16.65t-13.35,5.4q-10.125,0-13.575-9.75a47.409,47.409,0,0,1-2.25-9.6,115.659,115.659,0,0,1-.6-13.5,58.444,58.444,0,0,1,2.7-17.4,29.621,29.621,0,0,1,15.15-3.75h0ZM254.9,205.7q-8.7,0-17.475,7.95A66.891,66.891,0,0,0,223.1,232.1q0.45-4.95.45-9,0-16.2-15.15-16.2-8.55,0-17.1,7.275a62.458,62.458,0,0,0-14.1,17.175q1.047-10.5,1.05-13.2a10.944,10.944,0,0,0-3.375-8.4,12.344,12.344,0,0,0-8.775-3.15,28.8,28.8,0,0,0-10.2,1.8,115.621,115.621,0,0,1,3.45,26.025,194.965,194.965,0,0,1-1.35,22.8q-1.35,11.475-1.35,15.9a8.2,8.2,0,0,0,3.225,6.9,13.416,13.416,0,0,0,8.4,2.475,28.187,28.187,0,0,0,9.975-1.8,151.174,151.174,0,0,1-3-23.25q0.3-4.95,4.425-13.275A71.362,71.362,0,0,1,189.8,228.95q6-6.9,10.65-6.9,6.75,0,6.75,7.5,0,3.6-1.65,17.7a198.16,198.16,0,0,0-1.65,20.1q0,14.253,12.75,14.25a33,33,0,0,0,9.6-1.8,106.732,106.732,0,0,1-4.2-23.55q0-7.8,9.375-21.6t16.125-13.8q6.148,0,6.15,7.5,0,3.9-1.65,19.125T250.4,269.15q0,14.253,12.75,14.25a24.174,24.174,0,0,0,9.6-1.8,89.508,89.508,0,0,1-4.2-27.6l1.5-32.1q0-16.2-15.15-16.2h0Zm132.6,0q-8.7,0-17.475,7.95A66.891,66.891,0,0,0,355.7,232.1q0.45-4.95.45-9,0-16.2-15.15-16.2-8.55,0-17.1,7.275a62.458,62.458,0,0,0-14.1,17.175q1.047-10.5,1.05-13.2a10.944,10.944,0,0,0-3.375-8.4,12.344,12.344,0,0,0-8.775-3.15,28.8,28.8,0,0,0-10.2,1.8,115.621,115.621,0,0,1,3.45,26.025,194.965,194.965,0,0,1-1.35,22.8q-1.35,11.475-1.35,15.9a8.2,8.2,0,0,0,3.225,6.9,13.416,13.416,0,0,0,8.4,2.475,28.187,28.187,0,0,0,9.975-1.8,151.174,151.174,0,0,1-3-23.25q0.3-4.95,4.425-13.275A71.362,71.362,0,0,1,322.4,228.95q6-6.9,10.65-6.9,6.75,0,6.75,7.5,0,3.6-1.65,17.7a198.16,198.16,0,0,0-1.65,20.1q0,14.253,12.75,14.25a33,33,0,0,0,9.6-1.8,106.732,106.732,0,0,1-4.2-23.55q0-7.8,9.375-21.6t16.125-13.8q6.148,0,6.15,7.5,0,3.9-1.65,19.125T383,269.15q0,14.253,12.75,14.25a24.174,24.174,0,0,0,9.6-1.8,89.508,89.508,0,0,1-4.2-27.6l1.5-32.1q0-16.2-15.15-16.2h0Zm52.948,75.6q9,0,16.725-7.425T469.4,254.3q0,14.4-5.25,32.1a48.041,48.041,0,0,1-7.2,14.7q-4.5,6-10.05,6-9.151,0-9.15-13.2a15.544,15.544,0,0,1,.45-3.45,18.635,18.635,0,0,0-3-.3,13.8,13.8,0,0,0-9.6,3.675,11.767,11.767,0,0,0-4.05,9.075,14.54,14.54,0,0,0,6.375,12.6,25.214,25.214,0,0,0,14.925,4.5,32,32,0,0,0,15.3-3.6q30-16.351,30-98.25a10.944,10.944,0,0,0-3.375-8.4,11.84,11.84,0,0,0-8.4-3.15,27.758,27.758,0,0,0-9.825,1.8q1.8,6,2.55,17.85,0,5.7-3.525,15.45a72.406,72.406,0,0,1-9.3,17.775q-5.776,8.026-10.8,8.025t-5.925-5.1a29.81,29.81,0,0,1-.75-4.425q-0.151-1.874-.15-6A121.111,121.111,0,0,1,440.3,236.9a122.212,122.212,0,0,0,1.65-16.95q0-13.349-12-13.35a26.282,26.282,0,0,0-10.35,1.8,89.612,89.612,0,0,1,4.2,27.6l-1.5,21.6q0,23.7,18.15,23.7h0Z"/>
</svg>
