<svg xmlns="http://www.w3.org/2000/svg" width="500" height="500" viewBox="0 0 500 500">
  <defs>
    <style>
      .cls-1 {
        fill-rule: evenodd;
      }
    </style>
  </defs>
  <path id="T" class="cls-1" d="M399.628,130.7q0-9.45-4.95-13.05-7.2-5.4-28.8-5.4-18,0-66.6,7.65-22.507,4.05-32.4,4.5a60.866,60.866,0,0,0-.9-7.425q-0.908-5.622-2.25-6.975-6.75-6.75-15.3-6.75c-1.5,0-2.475,1.955-2.925,5.85a198.107,198.107,0,0,0-.675,19.8q-60.75,7.657-100.8,11.25-17.55,1.35-43.2,2.7a10.934,10.934,0,0,0-6.75,2.025q-2.7,2.025-2.7,6.525,0,6.75,7.65,12.6t15.75,5.85a38.246,38.246,0,0,0,12.15-1.8q30.142-8.542,120.15-18.45,0.9,11.253,1.8,58.725t0.9,84.375q0,51.3-2.7,86.4l-0.45,15.75a9.507,9.507,0,0,0,2.25,6.3,6.809,6.809,0,0,0,5.4,2.7,20.1,20.1,0,0,0,10.575-3.15q5.167-3.142,6.075-8.1,1.35-6.3,2.025-32.85t0.675-48.15q0-51.3-1.125-97.875t-2.475-68.175q17.993-4.05,45.45-6.3t49.05-2.25a49.161,49.161,0,0,1,14.625,2.475q7.868,2.478,9.225,2.475a10.019,10.019,0,0,0,8.1-3.825q3.142-3.818,3.15-7.425h0Z"/>
</svg>
